<?xml version="1.0" encoding="utf-8"?>
<!-- Generator: Adobe Illustrator 21.1.0, SVG Export Plug-In . SVG Version: 6.00 Build 0)  -->
<svg version="1.1" id="Layer_1" xmlns="http://www.w3.org/2000/svg" xmlns:xlink="http://www.w3.org/1999/xlink" x="0px" y="0px"
	 viewBox="0 0 1366 768" xml:space="preserve">
<style type="text/css">
	.st0{fill:#F7911E;}
	.st1{fill:#F7651E;}
</style>
<circle class="st0" cx="683" cy="384" r="385"/>
<path class="st1" d="M841.6,375.8c0-0.1,0-0.2,0-0.3c30.3,0,60.6,0.3,91-0.2c9.5-0.2,19.1-2.1,28.5-3.7
	c16.3-2.8,24.1-15.2,30.4-28.5c10.1-21.4,1.4-42.1-4.3-62.4c-3.6-12.8-10.1-24.7-15.7-36.9c-8.6-18.9-17.9-37.4-35.6-50.1
	c-17.9-12.8-37.9-10-52.7,4.6c-26.6,26.3-52.5,53.2-78.9,79.8c-26.1,26.3-52.3,52.4-78.2,78.9c-2.7,2.8-5.1,8.3-4.2,11.6
	c0.8,3,6.1,5.1,9.8,6.8c2.2,1,5.1,0.4,7.6,0.4C773.5,375.8,807.5,375.8,841.6,375.8z"/>
<path class="st1" d="M692.2,542.5c0.1,0,0.1,0,0.2,0c0,34.9-0.8,69.9,0.5,104.7c0.4,10.1,4.5,22,11,29.5
	c9.8,11.3,23.3,19.9,39.8,18.6c9-0.7,17.9-2.7,26.7-4.9c10.2-2.6,20.3-5.6,30.1-9.3c10.1-3.8,20.1-7.9,29.5-13.1
	c12.5-6.9,25.8-12.4,36-23.5c18.5-20,20.4-45.6,1.7-65c-21.6-22.4-44.1-43.9-66.4-65.5c-29.9-29.1-60-57.9-90.1-86.9
	c-1.6-1.6-3.2-3.5-5.1-4.3c-8.2-3.5-13.8,1.4-13.8,12.3C692.1,470.9,692.2,506.7,692.2,542.5z"/>
<path class="st1" d="M692.2,224.4L692.2,224.4c0,20.3-0.1,40.6,0,61c0,16-0.3,32.1,0.4,48.1c0.2,4.2,3.4,8.8,6.5,12
	c0.8,0.8,7-2.2,9.6-4.6c14-13.4,27.7-27.1,41.5-40.8c7.2-7.1,14.1-14.4,21.5-21.3c13.5-12.6,27.4-24.8,40.7-37.6
	c7.5-7.3,13.5-16.2,21.1-23.5c12-11.7,25.2-22.1,36.9-34c10.6-10.8,12.4-35.5,6.2-49c-5.8-12.6-17-19.6-27.8-25.5
	c-19.6-10.7-40.4-19.2-60.9-27.9c-14.8-6.3-30.2-9.1-46.6-9.3c-27.8-0.3-48.4,22.5-48.8,48.9C691.9,155.1,692.2,189.8,692.2,224.4z"
	/>
<path class="st1" d="M525,374.2v0.1c34.6,0,69.2,0,103.9,0c3.1,0,6.3,0.1,9.4-0.5c8-1.4,10-6.5,5-12.8c-5.3-6.7-10.9-13.2-16.8-19.3
	c-12.7-13.1-25.8-25.8-38.7-38.7c-7.5-7.5-15-14.9-22.4-22.4c-10.8-10.9-21.7-21.9-32.4-32.9c-16.6-17.1-33.2-34.4-49.8-51.5
	c-0.6-0.6-1.4-1-2.1-1.4c-20.3-12.3-47-12.3-62.4,11.6c-6.9,10.7-14.2,21.1-20.6,32c-3.8,6.6-6,14.1-9.3,21
	c-9.6,20.2-16.7,40.6-16.8,63.6c-0.1,30.4,22.8,51.3,49.9,51.3C456.4,374.1,490.7,374.2,525,374.2z"/>
<path class="st1" d="M671.1,221.7c-0.3,0-0.6,0-1,0c0-36.6,0.9-73.2-0.3-109.7c-0.8-22.8-20.3-40-43.2-39.8
	c-12.1,0.1-24.3,2.1-36.1,4.6c-28.8,5.9-54.5,19.2-79,35c-14,9-26,20.1-28.1,37.7c-2.3,18.7,8.5,31.9,20.8,43.8
	c12.9,12.5,26.5,24.3,39.3,37c21.3,21,42.3,42.4,63.4,63.7c11,11.1,21.7,22.6,32.9,33.4c5.9,5.7,12.3,11,19.1,15.6
	c6.5,4.4,12.2,0.6,12.2-7.2C671.1,297.7,671.1,259.7,671.1,221.7z"/>
<path class="st1" d="M671.3,544.3c0-36.3,0.2-72.7-0.2-109c-0.1-4.5-2.2-10.7-5.5-13c-5.4-3.8-10,1.5-13.7,5.4
	c-13.2,13.8-26.3,27.7-39.7,41.3c-5.4,5.5-11.4,10.4-17,15.6c-6.7,6.2-13.6,12.2-19.9,18.7c-14.5,14.9-28.5,30.3-43.1,45.2
	c-12.4,12.6-25.6,24.5-38.1,37c-18,18-11.9,41.9,1.8,56.2c14.9,15.7,34.6,25.3,54.1,33.8c18.7,8.1,38.7,12.9,58.3,18.8
	c25.9,7.9,64.8-13.6,63.5-47C670.2,613,671.3,578.6,671.3,544.3z"/>
<path class="st1" d="M994.3,445.4c2.9-29.1-20.8-51.8-44.9-52.1c-71.8-0.8-143.6-1.1-215.4-1.2c-4,0-9.7,3.1-11.4,6.4
	c-1.4,2.7,0.7,8.9,3.3,11.8c7.7,8.7,16.5,16.5,24.6,24.9c27.7,28.4,55.2,57,83,85.4c14,14.3,28.9,27.6,42.3,42.5
	c25.2,28.1,56.9,19.9,75.6-6.9c11.6-16.6,19.8-35.7,28.5-54.1C988.3,484.1,995,465.6,994.3,445.4z"/>
<path class="st1" d="M523.6,393C523.6,393.1,523.6,393.1,523.6,393c-35.2,0.1-70.4,0-105.5,0.1c-21.3,0.1-42.4,16.2-46,37.2
	c-3,17.6-1.1,35.5,5.9,52.1c7.1,16.8,11.4,34.9,22.3,50.1c7.4,10.4,12.5,22.6,20.5,32.3c12.8,15.6,42.8,22.5,60.1,6.3
	c8.3-7.7,16.4-15.8,24.3-24c25.7-26.3,51.4-52.7,77.1-79.1c19.9-20.4,39.9-40.7,59.7-61.2c5.1-5.3,2.9-11.7-4.3-13.4
	c-3-0.7-6.3-0.5-9.4-0.5C593.3,393,558.4,393,523.6,393z"/>
</svg>
